# xmcd
#
# Track frame offsets: 
#        150
#        16650
#        40100
#        58305
#        81055
#        103492
#        123055
#        147892
#        176235
#
# Disc length: 2646 seconds
#
# Revision: 2
# Processed by: cddbd v1.5.2PL0 Copyright (c) Steve Scherf et al.
# Submitted via: ExactAudioCopyFreeDBPlugin 1.0
#
DISCID=750a5409
DTITLE=安部恭弘 - MODERATO
DYEAR=2004
DGENRE=
TTITLE0=ジュリエット
TTITLE1=Line Is Busy
TTITLE2=グッバイは甘いリズムにのせて
TTITLE3=Rainy Day Girl
TTITLE4=You Can Change
TTITLE5=Music
TTITLE6=トパーズ色の月
TTITLE7=TIGHT UP
TTITLE8=彼の消息
EXTD=
EXTT0=
EXTT1=
EXTT2=
EXTT3=
EXTT4=
EXTT5=
EXTT6=
EXTT7=
EXTT8=
PLAYORDER=
